<?xml version="1.0" standalone="no"?>
<!DOCTYPE svg PUBLIC "-//W3C//DTD SVG 20010904//EN"
 "http://www.w3.org/TR/2001/REC-SVG-20010904/DTD/svg10.dtd">
<svg version="1.0" xmlns="http://www.w3.org/2000/svg"
 width="1280.000000pt" height="1062.000000pt" viewBox="0 0 1280.000000 1062.000000"
 preserveAspectRatio="xMidYMid meet">
<metadata>
Created by potrace 1.15, written by Peter Selinger 2001-2017
</metadata>
<g transform="translate(0.000000,1062.000000) scale(0.100000,-0.100000)"
fill="#000000" stroke="none">
<path d="M3780 10614 c-19 -2 -91 -9 -160 -14 -443 -38 -921 -171 -1286 -359
-512 -265 -838 -630 -931 -1045 -22 -99 -22 -316 1 -420 86 -392 402 -757 878
-1014 l97 -53 -45 -107 c-233 -559 -331 -798 -328 -800 3 -4 368 81 509 120
449 121 761 246 1000 398 l90 57 110 -9 c153 -13 663 -3 804 16 280 38 526 91
741 161 58 19 108 35 112 35 3 0 8 -64 11 -142 3 -79 13 -169 20 -200 69 -271
195 -486 412 -703 316 -318 748 -549 1288 -690 397 -103 752 -142 1201 -132
l260 6 70 -44 c251 -156 660 -308 1169 -435 222 -55 650 -150 654 -146 3 3
-62 160 -352 860 -76 183 -78 190 -59 203 10 8 69 46 129 85 296 190 536 442
665 697 96 192 134 354 133 566 0 163 -12 235 -63 386 -187 558 -814 1038
-1645 1259 -801 214 -1743 177 -2486 -97 l-106 -39 -12 93 c-18 139 -45 225
-111 358 -291 588 -1068 1014 -2065 1131 -122 14 -625 27 -705 18z"/>
<path d="M1100 7469 c-178 -23 -385 -80 -495 -137 -140 -73 -280 -248 -422
-528 -206 -410 -234 -759 -97 -1226 34 -118 203 -584 271 -747 219 -529 565
-1012 1133 -1582 568 -569 1032 -910 1540 -1127 141 -61 506 -198 698 -263
582 -197 993 -147 1527 183 211 131 308 244 369 428 70 211 110 462 87 547
-15 55 -71 103 -197 172 -551 299 -813 448 -915 523 -97 70 -193 112 -254 112
-100 0 -201 -87 -435 -374 -239 -294 -326 -368 -423 -357 -66 8 -120 35 -353
172 -454 269 -765 512 -1033 808 -221 245 -362 442 -578 806 -140 237 -173
308 -175 375 -1 93 56 160 331 389 245 203 339 296 376 372 47 96 27 164 -105
360 -71 105 -207 342 -386 672 -172 317 -185 340 -224 378 -54 53 -103 62
-240 44z"/>
<path d="M11296 6026 c-104 -44 -156 -109 -286 -354 -181 -344 -382 -696 -467
-818 -149 -216 -172 -350 -90 -509 42 -79 206 -244 407 -407 198 -160 284
-249 275 -280 -10 -31 -67 -139 -155 -288 -420 -718 -824 -1122 -1545 -1547
-203 -120 -267 -153 -296 -153 -29 0 -118 93 -279 290 -295 361 -413 449 -585
437 -96 -6 -168 -36 -304 -127 -167 -112 -343 -212 -962 -550 -108 -59 -172
-118 -209 -194 -30 -60 -32 -71 -31 -167 1 -208 79 -530 167 -687 144 -256
630 -551 1064 -643 88 -19 136 -23 295 -23 238 0 385 26 650 112 126 42 591
216 705 264 531 226 1029 585 1600 1158 319 319 536 570 745 865 243 342 360
571 551 1082 209 558 247 717 248 1023 1 153 -3 204 -22 297 -70 348 -294 775
-515 979 -150 139 -476 248 -777 260 -117 5 -129 3 -184 -20z"/>
</g>
</svg>
